<?xml version="1.0" encoding="UTF-8"?>
<svg width="1420px" height="609px" viewBox="0 0 1420 609" version="1.1" xmlns="http://www.w3.org/2000/svg" xmlns:xlink="http://www.w3.org/1999/xlink">
    <!-- Generator: Sketch 64 (93537) - https://sketch.com -->
    <title>Group 5</title>
    <desc>Created with Sketch.</desc>
    <g id="Page-1" stroke="none" stroke-width="1" fill="none" fill-rule="evenodd">
        <g id="Group-5" transform="translate(-2.000000, -9.000000)">
            <g id="Group">
                <g id="Group-18" opacity="0.8" transform="translate(74.895978, 570.039841) rotate(-7.000000) translate(-74.895978, -570.039841) translate(4.993065, 525.539841)">
                    <ellipse id="Oval-11" fill="#CFDAE6" opacity="0.25" cx="63.4867033" cy="32.468367" rx="21.7528356" ry="21.766008"></ellipse>
                    <ellipse id="Oval-3" fill="#CFDAE6" opacity="0.599999964" cx="5.9791604" cy="13.8668601" rx="5.21015498" ry="5.21330997"></ellipse>
                    <path d="M38.082559,88.3520215 C43.8375372,88.3520215 48.5028689,83.6838647 48.5028689,77.9254015 C48.5028689,72.1669383 43.8375372,67.4987816 38.082559,67.4987816 C32.3275807,67.4987816 27.662249,72.1669383 27.662249,77.9254015 C27.662249,83.6838647 32.3275807,88.3520215 38.082559,88.3520215 Z" id="Oval-3-Copy" fill="#CFDAE6" opacity="0.45"></path>
                    <line x1="64.1884076" y1="33.1704963" x2="119.020529" y2="16.5654915" id="Path-12" stroke="#CFDAE6" stroke-width="1.73913043" stroke-linecap="round" stroke-linejoin="round"></line>
                    <line x1="42.0847198" y1="26.5002681" x2="7.70120551" y2="14.5640702" id="Path-16" stroke="#E0B4B7" stroke-width="0.702678964" opacity="0.7" stroke-linecap="round" stroke-linejoin="round" stroke-dasharray="1.405357899873153,2.108036953469981"></line>
                    <line x1="63.8375554" y1="33.521561" x2="43.611561" y2="69.3250951" id="Path-15" stroke="#BACAD9" stroke-width="0.702678964" stroke-linecap="round" stroke-linejoin="round" stroke-dasharray="1.405357899873153,2.108036953469981"></line>
                    <g id="Group-17" transform="translate(126.674985, 13.543654) rotate(30.000000) translate(-126.674985, -13.543654) translate(117.123034, 4.381889)" fill="#CFDAE6">
                        <ellipse id="Oval-4" opacity="0.45" cx="9.12215686" cy="9.12768076" rx="9.12215686" ry="9.12768076"></ellipse>
                        <path d="M18.2443137,18.2553615 C18.2443137,13.2142826 14.160185,9.12768076 9.12215686,9.12768076 C4.08412874,9.12768076 0,13.2142826 0,18.2553615 L18.2443137,18.2553615 Z" id="Oval-4" transform="translate(9.122157, 13.691521) scale(-1, -1) translate(-9.122157, -13.691521) "></path>
                    </g>
                </g>
                <g id="Group-10" opacity="0.799999952" transform="translate(1052.737084, 37.000000) rotate(-11.000000) translate(-1052.737084, -37.000000) translate(1025.275226, 5.000000)">
                    <ellipse id="Oval-7" stroke="#CFDAE6" stroke-width="0.941176471" cx="43.7527916" cy="32" rx="11.1709255" ry="11.2941176"></ellipse>
                    <g id="Group-12" transform="translate(34.548790, 23.111111)" fill="#BACAD9">
                        <ellipse id="Oval-7" opacity="0.45" cx="9.17260745" cy="8.88888889" rx="8.46282235" ry="8.55614973"></ellipse>
                        <path d="M9.17260745,17.4450386 C13.8464952,17.4450386 17.6354298,13.6143199 17.6354298,8.88888889 C17.6354298,4.16345787 13.8464952,0.332739156 9.17260745,0.332739156 L9.17260745,17.4450386 Z" id="Oval-7"></path>
                    </g>
                    <line x1="34.6116668" y1="24.809694" x2="5.70873205" y2="4.76878945" id="Path-2" stroke="#CFDAE6" stroke-width="0.941176471"></line>
                    <ellipse id="Oval" stroke="#CFDAE6" stroke-width="0.941176471" cx="3.25818661" cy="3.29411765" rx="3.25818661" ry="3.29411765"></ellipse>
                    <ellipse id="Oval-Copy" fill="#F7E1AD" cx="2.79273138" cy="61.1764706" rx="2.79273138" ry="2.82352941"></ellipse>
                    <line x1="34.583212" y1="39.2922712" x2="5.05664352" y2="59.785082" id="Path-10" stroke="#CFDAE6" stroke-width="0.941176471"></line>
                </g>
                <g id="Group-14" transform="translate(216.093154, 124.066282) rotate(-5.000000) translate(-216.093154, -124.066282) translate(106.245720, 35.566282)">
                    <ellipse id="Oval-2" fill="#CFDAE6" opacity="0.25" cx="29.077262" cy="29.1402439" rx="29.077262" ry="29.1402439"></ellipse>
                    <ellipse id="Oval-2" fill="#CFDAE6" opacity="0.3" cx="29.077262" cy="29.1402439" rx="21.5387126" ry="21.5853659"></ellipse>
                    <ellipse id="Oval-2-Copy" stroke="#CFDAE6" opacity="0.4" cx="178.771314" cy="138.146341" rx="23.6925838" ry="23.7439024"></ellipse>
                    <ellipse id="Oval-2" fill="#BACAD9" opacity="0.5" cx="29.077262" cy="29.1402439" rx="10.7693563" ry="10.7926829"></ellipse>
                    <path d="M29.077262,39.9329268 L29.077262,18.347561 C23.1295107,18.347561 18.3079057,23.1796097 18.3079057,29.1402439 C18.3079057,35.1008781 23.1295107,39.9329268 29.077262,39.9329268 Z" id="Oval-2" fill="#BACAD9"></path>
                    <g id="Group-9" opacity="0.45" transform="translate(171.761442, 131.000000)" fill="#E6A1A6">
                        <ellipse id="Oval-2-Copy-2" cx="7.00987191" cy="7.14634146" rx="6.46161377" ry="6.47560976"></ellipse>
                        <path d="M0.548258138,13.6219512 C4.11690888,13.6219512 7.00987191,10.722722 7.00987191,7.14634146 C7.00987191,3.56996095 4.11690888,0.670731707 0.548258138,0.670731707 L0.548258138,13.6219512 Z" id="Oval-2-Copy-2" transform="translate(3.779065, 7.146341) scale(-1, 1) translate(-3.779065, -7.146341) "></path>
                    </g>
                    <ellipse id="Oval-10" fill="#CFDAE6" cx="218.079465" cy="138.685976" rx="1.61540344" ry="1.61890244"></ellipse>
                    <ellipse id="Oval-10-Copy-2" fill="#E0B4B7" opacity="0.35" cx="179.309782" cy="175.381098" rx="1.61540344" ry="1.61890244"></ellipse>
                    <ellipse id="Oval-10-Copy" fill="#E0B4B7" opacity="0.35" cx="179.84825" cy="102.530488" rx="2.15387126" ry="2.15853659"></ellipse>
                    <line x1="28.9583182" y1="29.9671598" x2="170.913638" y2="132.876024" id="Path-11" stroke="#CFDAE6" opacity="0.8"></line>
                    <g id="Group-4-Copy" opacity="0.850000024" transform="translate(26.948764, 143.667961) rotate(-16.000000) translate(-26.948764, -143.667961) translate(6.976503, 123.667961)">
                        <ellipse id="Oval-8" stroke="#CFDAE6" stroke-width="0.8" cx="19.9722607" cy="20" rx="17.3671833" ry="17.3913043"></ellipse>
                        <path d="M19.9442075,4.34782609 C14.5255994,4.34782609 9.75098631,7.1089261 6.9468733,11.3027787 M19.9442075,35.6521739 L19.9442075,35.6521739 C25.633716,35.6521739 30.6132275,32.6080932 33.3471709,28.0576356" id="Oval-8" stroke="#DDE4EB" stroke-width="0.782608696"></path>
                        <ellipse id="Oval-9" stroke="#CFDAE6" stroke-width="0.869565217" fill="#F0F2F5" cx="19.9722607" cy="2.60869565" rx="2.60507749" ry="2.60869565"></ellipse>
                        <ellipse id="Oval-9-Copy-2" fill="#CFDAE6" cx="37.339444" cy="20" rx="2.60507749" ry="2.60869565"></ellipse>
                        <ellipse id="Oval-9-Copy-3" fill="#F7E1AD" cx="2.60507749" cy="20" rx="2.60507749" ry="2.60869565"></ellipse>
                        <ellipse id="Oval-9-Copy" fill="#CFDAE6" cx="19.9722607" cy="37.3913043" rx="2.60507749" ry="2.60869565"></ellipse>
                    </g>
                </g>
                <g id="Group-19" opacity="0.33" transform="translate(1280.856834, 446.843550) rotate(-10.000000) translate(-1280.856834, -446.843550) translate(1141.051009, 327.843550)">
                    <g id="Group-17" transform="translate(141.137514, 104.502742) rotate(275.000000) translate(-141.137514, -104.502742) translate(129.154158, 92.502742)" fill="#BACAD9">
                        <ellipse id="Oval-4" opacity="0.45" cx="11.6504854" cy="11.6666667" rx="11.6504854" ry="11.6666667"></ellipse>
                        <path d="M23.3009709,23.3333333 C23.3009709,16.8900113 18.0848709,11.6666667 11.6504854,11.6666667 C5.2161,11.6666667 0,16.8900113 0,23.3333333 L23.3009709,23.3333333 Z" id="Oval-4" transform="translate(11.650485, 17.500000) scale(-1, -1) translate(-11.650485, -17.500000) "></path>
                    </g>
                    <ellipse id="Oval-5-Copy-6" fill="#CFDAE6" cx="201.553398" cy="87.5" rx="5.82524272" ry="5.83333333"></ellipse>
                    <line x1="143.300971" y1="88.8126685" x2="154.855424" y2="17.6038544" id="Path-17" stroke="#BACAD9" stroke-width="1.16666667"></line>
                    <line x1="17.4757282" y1="37.3333333" x2="127.289461" y2="97.6449735" id="Path-18" stroke="#BACAD9" stroke-width="1.16666667"></line>
                    <polyline id="Path-19" stroke="#CFDAE6" stroke-width="1.16666667" points="143.703009 120.302281 174.692826 231.571342 38.4466019 147.510847 126.191675 110.833333"></polyline>
                    <line x1="159.61165" y1="99.7453842" x2="195.145631" y2="89.25" id="Path-20" stroke="#E0B4B7" stroke-width="1.16666667" opacity="0.6"></line>
                    <line x1="205.048544" y1="82.1372105" x2="238.388311" y2="36.1666667" id="Path-24" stroke="#BACAD9" stroke-width="1.16666667"></line>
                    <line x1="266.353489" y1="132.231988" x2="206.796117" y2="90.4166667" id="Path-25" stroke="#CFDAE6" stroke-width="1.16666667"></line>
                    <ellipse id="Oval-5" fill="#C1D1E0" cx="156.699029" cy="8.75" rx="8.73786408" ry="8.75"></ellipse>
                    <ellipse id="Oval-5-Copy" fill="#D3DDE6" cx="270.873786" cy="135.916667" rx="8.73786408" ry="8.75"></ellipse>
                    <ellipse id="Oval-5-Copy-3" fill="#C1D1E0" cx="39.0291262" cy="148.75" rx="5.24271845" ry="5.25"></ellipse>
                    <ellipse id="Oval-5-Copy-2" fill-opacity="0.6" fill="#D1DEED" cx="8.73786408" cy="33.25" rx="8.73786408" ry="8.75"></ellipse>
                    <ellipse id="Oval-5-Copy-4" fill-opacity="0.6" fill="#D1DEED" cx="243.495146" cy="30.3333333" rx="5.82524272" ry="5.83333333"></ellipse>
                    <ellipse id="Oval-5-Copy-5" fill="#E0B4B7" cx="175.339806" cy="232.75" rx="5.24271845" ry="5.25"></ellipse>
                </g>
            </g>
        </g>
    </g>
</svg>